<?xml version="1.0" encoding="iso-8859-1"?>
<!-- Generator: Adobe Illustrator 19.1.0, SVG Export Plug-In . SVG Version: 6.00 Build 0)  -->
<svg version="1.1" id="Capa_1" xmlns="http://www.w3.org/2000/svg" xmlns:xlink="http://www.w3.org/1999/xlink" x="0px" y="0px"
	 viewBox="0 0 63.48 63.48" style="enable-background:new 0 0 63.48 63.48;" xml:space="preserve">
<g>
	<g id="group-65svg">
		<path id="path-1_112_" style="fill:#8B71B5;" d="M59.24,63.48l-24-16.841l-24,16.841V7.691C11.24,5.366,12.735,3,15.06,3h40
			c2.326,0,4.18,2.366,4.18,4.691V63.48z"/>
		<path id="path-2_112_" d="M54.74,62.98c-0.298,0-0.595-0.088-0.85-0.263L30.24,46.459L6.59,62.717
			c-0.459,0.315-1.056,0.351-1.548,0.091C4.548,62.549,4.24,62.037,4.24,61.48V5.691C4.24,2.553,6.851,0,10.06,0h40
			c3.292,0,6.18,2.659,6.18,5.691V61.48c0,0.557-0.309,1.069-0.802,1.328C55.219,62.924,54.979,62.98,54.74,62.98z M30.24,43.139
			c0.297,0,0.594,0.088,0.85,0.263l22.15,15.227V5.691C53.24,4.308,51.695,3,50.06,3h-40C8.531,3,7.24,4.232,7.24,5.691v52.938
			l22.15-15.227C29.646,43.227,29.943,43.139,30.24,43.139z"/>
		<path id="path-3_111_" d="M52.24,12h-46c-0.829,0-1.5-0.672-1.5-1.5S5.411,9,6.24,9h46c0.829,0,1.5,0.672,1.5,1.5
			S53.069,12,52.24,12z"/>
		<path id="path-4_109_" d="M29.238,33c-0.018,0-0.034,0-0.051,0c-0.415,0-0.806-0.035-1.079-0.348l-3.844-4.32
			c-0.545-0.624-0.481-1.53,0.143-2.075c0.625-0.544,1.572-0.46,2.117,0.164l2.788,3.203l6.616-6.61
			c0.586-0.586,1.536-0.584,2.122,0.002c0.585,0.585,0.585,1.537,0,2.123l-7.752,7.586C30.016,33.007,29.634,33,29.238,33z"/>
	</g>
</g>
<g>
</g>
<g>
</g>
<g>
</g>
<g>
</g>
<g>
</g>
<g>
</g>
<g>
</g>
<g>
</g>
<g>
</g>
<g>
</g>
<g>
</g>
<g>
</g>
<g>
</g>
<g>
</g>
<g>
</g>
</svg>
