<?xml version="1.0" encoding="iso-8859-1"?>
<!-- Generator: Adobe Illustrator 19.1.0, SVG Export Plug-In . SVG Version: 6.00 Build 0)  -->
<svg version="1.1" id="Capa_1" xmlns="http://www.w3.org/2000/svg" xmlns:xlink="http://www.w3.org/1999/xlink" x="0px" y="0px"
	 viewBox="0 0 65.068 65.068" style="enable-background:new 0 0 65.068 65.068;" xml:space="preserve">
<g>
	<g id="group-4svg">
		<path id="path-1_4_" style="fill:#E56A77;" d="M35.293,65.068h19.741V58.06h-5.308c0,0-0.962-22.698-14.433-22.698
			c-13.472,0-14.434,22.698-14.434,22.698h-5.825v7.008H35.293z"/>
		<path id="path-2_4_" style="fill:#EDC951;" d="M36.255,5.005H15.034v6.006h6.787c0,0,0.963,22.698,14.434,22.698
			s14.434-22.698,14.434-22.698h4.345V5.005H36.255z"/>
		<path id="path-3_4_" d="M32.255,31.707c-12.799,0-15.352-17.456-15.83-22.698h-4.891c-0.828,0-1.5-0.672-1.5-1.501V1.501
			c0-0.829,0.672-1.501,1.5-1.501h40c0.828,0,1.5,0.672,1.5,1.501v6.007c0,0.829-0.672,1.501-1.5,1.501h-3.448
			C47.607,14.251,45.053,31.707,32.255,31.707z M13.034,6.006h4.787c0.803,0,1.464,0.634,1.499,1.437
			c0.009,0.213,1.06,21.261,12.935,21.261c11.876,0,12.926-21.048,12.935-21.261c0.035-0.803,0.696-1.437,1.499-1.437h3.345V3.003
			h-37V6.006z"/>
		<path id="path-4_4_" d="M51.534,63.066h-40c-0.828,0-1.5-0.673-1.5-1.502v-7.007c0-0.829,0.672-1.502,1.5-1.502h3.929
			c0.478-5.242,3.03-22.697,15.83-22.697s15.351,17.455,15.83,22.697h4.411c0.828,0,1.5,0.673,1.5,1.502v7.007
			C53.034,62.393,52.362,63.066,51.534,63.066z M13.034,60.062h37v-4.004h-4.308c-0.802,0-1.464-0.634-1.499-1.437
			c-0.008-0.213-1.058-21.26-12.934-21.26s-12.926,21.047-12.935,21.26c-0.035,0.803-0.696,1.437-1.499,1.437h-3.825V60.062z"/>
		<path id="path-5_4_" d="M43.034,48.05h-24c-0.828,0-1.5-0.673-1.5-1.502c0-0.829,0.672-1.501,1.5-1.501h24
			c0.828,0,1.5,0.672,1.5,1.501C44.534,47.377,43.862,48.05,43.034,48.05z"/>
		<path id="path-6_4_" d="M42.034,22.023h-21c-0.828,0-1.5-0.673-1.5-1.502s0.672-1.501,1.5-1.501h21c0.828,0,1.5,0.672,1.5,1.501
			S42.862,22.023,42.034,22.023z"/>
	</g>
</g>
<g>
</g>
<g>
</g>
<g>
</g>
<g>
</g>
<g>
</g>
<g>
</g>
<g>
</g>
<g>
</g>
<g>
</g>
<g>
</g>
<g>
</g>
<g>
</g>
<g>
</g>
<g>
</g>
<g>
</g>
</svg>
