<?xml version="1.0" encoding="iso-8859-1"?>
<!-- Generator: Adobe Illustrator 19.1.0, SVG Export Plug-In . SVG Version: 6.00 Build 0)  -->
<svg version="1.1" id="Capa_1" xmlns="http://www.w3.org/2000/svg" xmlns:xlink="http://www.w3.org/1999/xlink" x="0px" y="0px"
	 viewBox="0 0 65.495 65.495" style="enable-background:new 0 0 65.495 65.495;" xml:space="preserve">
<g>
	<g id="group-11svg">
		<path id="path-1_2_" style="fill:#FF917B;" d="M53.513,40.94l-6.471,6.471L35.447,35.816L23.852,24.222l6.472-6.471
			c1.548-1.549,1.548-4.06,0-5.609l-5.986-5.985c-1.543-1.543-4.066-1.543-5.609,0l-10.91,10.91c-3.098,3.098-3.098,8.12,0,11.218
			l17.58,17.58l16.806,16.807c3.098,3.097,8.121,3.097,11.218,0l10.91-10.911c1.549-1.549,1.549-4.06,0-5.609l-5.212-5.212
			C57.573,39.391,55.062,39.391,53.513,40.94z"/>
		<path id="path-2_2_" d="M43.815,63.495c-2.52,0-4.889-0.981-6.67-2.763L2.759,26.346c-3.678-3.678-3.678-9.662,0-13.34
			l10.91-10.91c1.03-1.029,2.403-1.596,3.866-1.596c1.462,0,2.835,0.567,3.865,1.595l5.985,5.986c2.131,2.131,2.131,5.599,0,7.731
			l-5.41,5.41l21.067,21.067l5.41-5.41c1.033-1.033,2.406-1.601,3.866-1.601c1.46,0,2.833,0.568,3.865,1.601l5.212,5.213
			c2.131,2.13,2.131,5.598,0,7.73l-10.91,10.91C48.702,62.514,46.333,63.495,43.815,63.495z M17.535,3.5
			c-0.663,0-1.282,0.255-1.745,0.718L4.879,15.127c-2.508,2.509-2.508,6.59,0,9.098l34.387,34.386
			c1.215,1.215,2.83,1.884,4.549,1.884c1.718,0,3.333-0.669,4.548-1.884l10.91-10.91c0.961-0.962,0.961-2.527,0-3.488L54.062,39
			c-0.932-0.931-2.557-0.931-3.488,0l-6.471,6.471c-0.563,0.563-1.559,0.563-2.121,0L18.792,22.283
			c-0.586-0.586-0.586-1.536,0-2.122l6.471-6.47c0.961-0.962,0.961-2.527,0-3.489l-5.985-5.985C18.816,3.755,18.196,3.5,17.535,3.5z
			"/>
		<path id="path-3_2_" d="M56.954,53.64c-0.383,0-0.767-0.146-1.06-0.439L45.073,42.38c-0.586-0.586-0.586-1.536,0-2.121
			c0.585-0.586,1.535-0.586,2.121,0L58.015,51.08c0.586,0.585,0.586,1.536,0,2.121C57.722,53.494,57.339,53.64,56.954,53.64z"/>
		<path id="path-4_2_" d="M22.945,19.63c-0.384,0-0.768-0.146-1.061-0.439L10.289,7.596c-0.586-0.585-0.586-1.536,0-2.121
			c0.586-0.586,1.535-0.586,2.121,0L24.005,17.07c0.586,0.585,0.586,1.535,0,2.121C23.712,19.484,23.328,19.63,22.945,19.63z"/>
		<path id="path-5_2_" d="M40.729,21.112h4.044c0.403,0,0.71,0.082,0.922,0.247c0.212,0.166,0.317,0.39,0.317,0.674
			c0,0.253-0.084,0.468-0.251,0.644c-0.168,0.175-0.423,0.263-0.764,0.263h-5.701c-0.388,0-0.689-0.107-0.906-0.322
			c-0.218-0.214-0.326-0.466-0.326-0.755c0-0.186,0.07-0.432,0.21-0.74c0.138-0.307,0.291-0.549,0.457-0.724
			c0.686-0.713,1.306-1.324,1.858-1.832c0.553-0.509,0.948-0.844,1.186-1.004c0.424-0.299,0.776-0.6,1.057-0.902
			c0.282-0.302,0.496-0.612,0.643-0.93c0.147-0.317,0.221-0.628,0.221-0.933c0-0.33-0.079-0.626-0.236-0.887
			c-0.158-0.261-0.372-0.463-0.643-0.608c-0.272-0.145-0.567-0.217-0.887-0.217c-0.677,0-1.209,0.297-1.596,0.891
			c-0.051,0.077-0.138,0.289-0.259,0.635c-0.122,0.346-0.259,0.612-0.412,0.798c-0.152,0.186-0.375,0.279-0.67,0.279
			c-0.257,0-0.472-0.086-0.642-0.256c-0.171-0.171-0.256-0.403-0.256-0.697c0-0.356,0.08-0.728,0.24-1.116
			c0.16-0.387,0.4-0.738,0.717-1.053c0.317-0.315,0.721-0.57,1.208-0.763c0.488-0.194,1.061-0.291,1.716-0.291
			c0.791,0,1.465,0.124,2.022,0.372c0.362,0.166,0.679,0.393,0.953,0.682c0.274,0.289,0.487,0.623,0.639,1.003
			s0.229,0.774,0.229,1.181c0,0.641-0.16,1.223-0.477,1.747c-0.317,0.524-0.642,0.935-0.972,1.232
			c-0.331,0.297-0.884,0.763-1.662,1.398c-0.777,0.635-1.31,1.129-1.599,1.48C40.986,20.747,40.859,20.915,40.729,21.112z"/>
		<path id="path-6_2_" d="M52.172,21.956v-1.441h-3.888c-0.492,0-0.86-0.111-1.105-0.333c-0.245-0.222-0.368-0.524-0.368-0.906
			c0-0.098,0.018-0.198,0.055-0.299c0.036-0.1,0.089-0.206,0.162-0.318c0.072-0.11,0.147-0.217,0.224-0.321
			c0.078-0.103,0.174-0.23,0.287-0.379l4.106-5.493c0.268-0.361,0.489-0.623,0.663-0.786c0.173-0.163,0.381-0.244,0.623-0.244
			c0.785,0,1.178,0.449,1.178,1.348v5.996h0.333c0.397,0,0.717,0.054,0.957,0.162c0.24,0.109,0.36,0.346,0.36,0.713
			c0,0.3-0.098,0.518-0.295,0.655c-0.196,0.137-0.49,0.205-0.883,0.205h-0.472v1.441c0,0.398-0.088,0.693-0.264,0.887
			c-0.176,0.193-0.41,0.291-0.705,0.291c-0.289,0-0.523-0.1-0.701-0.299C52.26,22.637,52.172,22.343,52.172,21.956z M48.84,18.78
			h3.331v-4.501L48.84,18.78z"/>
	</g>
</g>
<g>
</g>
<g>
</g>
<g>
</g>
<g>
</g>
<g>
</g>
<g>
</g>
<g>
</g>
<g>
</g>
<g>
</g>
<g>
</g>
<g>
</g>
<g>
</g>
<g>
</g>
<g>
</g>
<g>
</g>
</svg>
